# xmcd
#
# Track frame offsets:
#	150
#	7780
#	22073
#	36107
#	47807
#	66029
#	78728
#	93096
#	102367
#	115733
#	128220
#	142524
#
# Disc length: 1954 seconds
#
# Revision: 1
# Processed by: cddbd v1.5.2PL0 Copyright (c) Steve Scherf et al.
# Submitted via: audiograbber 1.83.01
#
DISCID=8e07a00c
DTITLE=Johnny Cash - From Sea To Shining Sea
DYEAR=1967
DGENRE=Country
TTITLE0=From Sea To Shining Sea
TTITLE1=The Whirl And The Suck
TTITLE2=Call Daddy From The Mine
TTITLE3=The Frozen Four-Hundred-Pound Fair-To-Middlin' Cotton Picker
TTITLE4=The Walls Of A Prison
TTITLE5=The Masterpiece
TTITLE6=You And Tennessee
TTITLE7=Another Song To Sing
TTITLE8=The Flint Arrowhead
TTITLE9=Cisco Clifton's Fillin' Station
TTITLE10=Shrimpin' Sailin'
TTITLE11=From Sea To Shining Sea(Finale)
EXTD=
EXTT0=
EXTT1=
EXTT2=
EXTT3=
EXTT4=
EXTT5=
EXTT6=
EXTT7=
EXTT8=
EXTT9=
EXTT10=
EXTT11=
PLAYORDER=
